<svg version="1.1" id="Layer_1" xmlns="http://www.w3.org/2000/svg" xmlns:xlink="http://www.w3.org/1999/xlink" x="0px" y="0px"
	 width="100%" viewBox="0 0 500 500" enable-background="new 0 0 500 500" xml:space="preserve">
<path fill="#1D1C37" opacity="1.000000" stroke="none" 
	d="
M250.000000,501.000000 
	C166.666687,501.000000 83.833374,501.000000 1.000044,501.000000 
	C1.000030,334.333405 1.000030,167.666779 1.000015,1.000134 
	C167.666565,1.000089 334.333130,1.000089 500.999756,1.000045 
	C500.999847,167.666519 500.999847,334.333038 500.999939,500.999786 
	C417.500000,501.000000 334.000000,501.000000 250.000000,501.000000 
M317.886475,328.897339 
	C317.886475,328.897339 317.728424,328.903625 318.273071,328.578125 
	C318.478516,328.000427 318.683960,327.422729 318.940399,326.934326 
	C318.940399,326.934326 318.846130,326.893250 319.644073,326.977173 
	C324.109314,327.772736 323.107147,330.822754 322.460144,333.754059 
	C322.134308,335.230164 321.889832,336.724213 321.608551,338.210144 
	C323.405792,338.139374 325.203003,338.068604 327.820709,337.826385 
	C329.213654,337.876282 330.606567,337.926147 331.476562,338.463928 
	C328.523102,341.035278 325.250610,343.330719 322.714233,346.262848 
	C320.576599,348.734100 322.455200,351.810638 325.998260,351.945099 
	C330.486176,352.115356 334.998871,352.188202 339.471924,351.881042 
	C340.967773,351.778320 343.326813,350.614655 343.597870,349.517548 
	C343.999603,347.891693 343.211823,345.723328 342.348358,344.094482 
	C341.189606,341.908569 339.475647,340.016937 338.805328,337.825897 
	C341.588867,337.811340 344.775543,338.464600 345.539490,334.518677 
	C346.301819,330.580811 348.704346,329.566589 352.380005,330.030701 
	C354.509827,330.299591 356.720947,330.272247 358.859192,330.041626 
	C361.712402,329.733856 363.003723,330.957947 363.865173,333.585083 
	C365.463013,338.457855 369.093170,339.322754 374.349854,336.077179 
	C374.904968,336.051422 375.460114,336.025635 376.423676,336.614838 
	C378.855133,337.053741 381.286591,337.492645 384.319885,338.040192 
	C384.319885,334.987518 384.319885,333.020996 384.319885,331.054474 
	C384.319885,329.130310 384.319885,327.206146 384.319885,325.376678 
	C398.443604,323.675568 402.760803,321.135437 404.173584,314.017029 
	C405.576385,306.948853 403.258270,302.658813 395.475555,298.472626 
	C395.077484,298.374084 394.679413,298.275543 394.164093,298.371094 
	C394.164093,298.371094 393.938782,298.345428 393.555054,297.752319 
	C390.027588,294.515808 390.892456,291.554413 395.527405,289.768097 
	C396.873749,289.249176 398.209473,287.600616 398.615631,286.199066 
	C398.825653,285.474304 396.850861,283.202301 396.106750,283.310120 
	C394.669678,283.518341 392.445740,284.750885 392.252960,285.856171 
	C391.719818,288.912964 389.790710,289.583588 387.672272,288.807617 
	C386.192902,288.265747 384.738800,286.454529 384.178986,284.886902 
	C383.360809,282.595825 383.736328,279.867645 382.865875,277.609985 
	C382.302948,276.150024 380.587708,274.516266 379.099945,274.157166 
	C375.803711,273.361511 371.104401,274.516541 369.262665,272.636841 
	C367.398865,270.734589 368.224823,266.138062 367.991333,262.713623 
	C367.753510,259.224854 365.651520,258.368652 362.882019,259.458771 
	C361.790375,259.888458 361.513031,262.104767 360.419434,262.875183 
	C358.595825,264.159912 356.475830,265.222778 354.330811,265.687256 
	C353.893738,265.781891 352.188660,262.846252 352.120453,261.262238 
	C351.950012,257.304626 352.722626,253.296265 352.434753,249.358124 
	C352.288361,247.355377 350.670135,245.460205 349.717285,243.516388 
	C348.120728,244.807144 346.470551,246.038177 344.945007,247.408051 
	C343.777618,248.456314 342.933228,250.390167 341.655701,250.687820 
	C338.296509,251.470444 334.785553,251.809784 331.323883,251.900696 
	C324.244843,252.086563 317.152252,251.845749 310.080597,252.144485 
	C308.716125,252.202148 306.376740,253.824265 306.275482,254.893921 
	C305.826904,259.635010 306.030029,264.437775 305.060730,269.221619 
	C291.831207,269.222839 278.600922,269.295898 265.373077,269.146912 
	C263.418274,269.124908 261.475281,268.052979 260.092651,267.216583 
	C260.808258,266.855316 261.523865,266.494019 262.917511,266.030121 
	C264.322327,265.164825 265.962524,264.534424 267.096191,263.398499 
	C281.120422,249.345825 295.070831,235.219513 309.560089,220.939743 
	C309.758636,220.644455 309.957214,220.349167 310.750519,219.771286 
	C313.824066,216.485199 316.897614,213.199112 320.486206,209.676392 
	C320.980408,209.113617 321.474609,208.550842 322.605835,207.744354 
	C323.378357,207.277954 324.150879,206.811539 325.392151,206.807526 
	C325.602905,206.868851 325.813629,206.930161 326.324615,207.514343 
	C326.855652,207.784302 327.386719,208.054276 327.853516,208.147003 
	C327.853516,208.147003 327.685425,208.232285 328.015961,208.823303 
	C330.014221,210.129715 332.012512,211.436111 334.010773,212.742508 
	C334.727112,210.477448 335.784210,208.258423 336.097626,205.938919 
	C337.145599,198.183060 337.959808,190.394684 338.785431,182.610474 
	C338.962280,180.943161 338.811249,179.241058 338.811249,176.780563 
	C328.346863,180.143936 318.870331,183.131195 309.448120,186.280838 
	C308.019348,186.758469 306.842834,187.990753 305.549622,188.873962 
	C306.645538,189.986847 307.741455,191.099716 308.901489,192.103088 
	C308.901489,192.103088 308.785126,192.052475 308.982910,192.580338 
	C309.310425,192.739456 309.637970,192.898575 310.305786,193.628326 
	C311.975922,195.106262 313.646027,196.584213 314.813385,198.544739 
	C312.788300,200.672546 310.794800,202.831436 308.733154,204.923172 
	C293.063751,220.821182 277.426483,236.751389 261.674957,252.567688 
	C256.905731,257.356537 252.790939,257.329712 247.161423,253.443527 
	C243.886795,251.182968 240.342499,249.313049 236.437241,246.783890 
	C229.919601,242.643539 223.401962,238.503174 216.693802,233.625122 
	C214.797028,230.266235 212.840012,226.939590 211.021378,223.538925 
	C209.384827,220.478729 207.579071,219.262482 204.440308,221.926178 
	C201.439499,224.472824 198.334961,224.941345 195.134811,221.798157 
	C194.085449,220.767471 192.219513,220.125076 190.706589,220.085510 
	C183.890625,219.907318 177.065201,219.921799 170.248520,220.087219 
	C168.945190,220.118835 166.691483,220.955444 166.539581,221.741959 
	C165.765198,225.751465 163.582443,227.719681 159.651093,228.522507 
	C158.595581,228.738068 158.022491,230.812820 156.992493,231.784500 
	C155.722031,232.983017 154.015869,234.944534 152.840698,234.726807 
	C151.156815,234.414795 149.097153,232.704224 148.449890,231.089081 
	C147.635132,229.056000 147.991241,226.516098 148.009521,224.196213 
	C148.032715,221.253433 146.665070,219.913315 143.753693,220.004044 
	C141.925507,220.061020 139.517517,219.290634 138.369553,220.180832 
	C134.367752,223.284210 130.509445,226.700378 127.235748,230.542282 
	C126.158897,231.806015 126.646721,234.809540 127.108093,236.862686 
	C127.566162,238.901199 128.891312,240.744873 129.836197,242.673996 
	C131.127274,241.262375 132.290482,239.698090 133.744156,238.480591 
	C135.307251,237.171432 137.034195,235.820038 138.918976,235.262863 
	C139.571899,235.069855 141.972198,237.758423 141.754074,238.172989 
	C140.810989,239.965256 139.265259,241.474045 137.798660,242.946411 
	C136.656250,244.093277 134.466721,244.863129 134.214920,246.100220 
	C133.582947,249.205124 132.190430,250.599609 129.070435,251.198807 
	C127.681709,251.465500 125.769218,253.333710 125.641876,254.627335 
	C125.513458,255.931839 127.137634,258.471252 128.281204,258.651978 
	C132.870895,259.377319 132.876740,262.282043 133.150589,265.879700 
	C133.358093,268.605499 134.229553,272.795441 136.030853,273.603943 
	C141.641693,276.122375 142.249619,280.167847 142.175430,285.354858 
	C142.153641,286.878296 143.859192,289.244537 145.325287,289.821655 
	C150.210419,291.744629 151.562180,296.067230 148.126907,300.575226 
	C146.778580,300.054718 145.412277,299.527283 143.795959,298.762787 
	C143.795959,298.762787 143.853638,298.423157 143.805984,297.688171 
	C143.621628,297.236420 143.541779,296.691620 143.235916,296.348022 
	C141.248245,294.115051 141.158508,289.007751 136.627670,290.558716 
	C132.021271,292.135498 135.113861,296.156006 135.010040,299.565216 
	C134.959763,299.882202 134.778900,300.079468 133.614929,300.126404 
	C128.989105,301.213715 131.776596,304.869019 131.031998,307.749298 
	C130.854019,308.008972 130.607880,308.129761 129.570984,308.151245 
	C127.302979,308.859924 126.235313,309.968079 128.212875,312.834808 
	C127.126656,314.925293 126.040436,317.015778 124.534477,319.914062 
	C121.086357,313.793976 117.896919,308.722961 115.309937,303.361237 
	C113.101479,298.784088 110.264259,296.701355 105.158844,298.744720 
	C105.158844,311.476013 105.158844,324.205383 105.158844,337.259399 
	C107.828934,337.259399 110.213814,337.259399 113.023582,337.259399 
	C113.023582,330.376923 113.023582,323.855988 113.023582,317.335052 
	C115.822441,320.446442 117.733551,323.827271 119.662346,327.197937 
	C122.556244,332.255219 126.235382,332.213837 129.266205,327.133392 
	C130.704926,324.721710 132.231354,322.362335 134.788345,320.057312 
	C135.145111,320.083221 135.501877,320.109100 136.017624,320.554260 
	C136.096039,320.895477 135.982849,321.152283 135.341446,321.974121 
	C135.506958,322.644135 135.672470,323.314148 135.998535,324.890533 
	C135.942581,328.260040 135.886627,331.629517 135.188858,335.125641 
	C132.544510,336.336060 132.852722,337.927673 135.098236,338.934021 
	C139.382355,340.853943 143.828964,342.411346 148.936493,344.403290 
	C148.415390,342.921875 148.179382,341.441010 147.436325,340.286438 
	C144.940140,336.407867 145.460831,326.771484 148.820435,324.205261 
	C148.962738,324.863831 149.105042,325.522369 149.347992,326.874207 
	C149.601257,327.257874 149.854538,327.641510 150.640030,328.415497 
	C158.652191,340.055115 173.351166,341.303741 181.738892,331.057251 
	C187.491989,324.029236 187.879776,314.983276 182.968933,304.804443 
	C183.910690,302.850128 184.852432,300.895813 185.948959,298.620331 
	C182.832901,299.675720 180.610367,300.428467 177.822083,301.025635 
	C176.466980,300.252014 175.111862,299.478363 173.846710,297.878143 
	C172.187424,295.929871 170.830414,292.782135 168.808533,292.272644 
	C163.978241,291.055359 164.721664,288.192657 165.623856,285.065216 
	C166.040100,283.622314 167.104736,282.366455 168.676666,279.631744 
	C163.482574,280.531525 159.722702,281.182831 155.519562,281.910950 
	C155.715347,280.445953 155.858597,279.374054 156.565842,277.989136 
	C157.637283,277.299927 158.708725,276.610718 160.243195,275.757690 
	C160.543198,275.609772 160.791855,275.400757 161.495178,274.989563 
	C161.663498,275.037781 161.831833,275.086029 162.173096,275.879547 
	C164.365372,276.586365 166.556320,277.905640 168.750107,277.910339 
	C222.361465,278.025055 275.973236,278.042084 329.584564,277.911621 
	C333.435669,277.902252 337.283661,276.632141 341.796722,276.148224 
	C343.197845,276.817047 344.598969,277.485870 345.998566,278.985352 
	C345.331573,283.572327 344.801483,288.185852 343.919464,292.731110 
	C343.630676,294.219421 342.427399,295.530304 341.642334,296.922333 
	C340.082825,295.864380 337.653503,295.115387 337.145111,293.684082 
	C336.090668,290.715271 334.427338,289.930756 331.571686,289.964417 
	C322.915100,290.066620 314.256409,290.029114 305.598999,289.971069 
	C304.135376,289.961243 302.409271,289.984955 301.289093,289.252228 
	C300.241028,288.566650 299.204529,286.821533 299.340790,285.683746 
	C299.458344,284.702423 301.201599,283.213623 302.280853,283.165009 
	C308.709869,282.875366 315.156006,282.994995 321.593903,282.860107 
	C324.898560,282.790863 328.511292,283.947266 331.311676,280.973999 
	C329.652954,280.147369 328.076385,280.010345 326.499756,280.009552 
	C300.193481,279.996307 273.886963,280.057190 247.581177,279.941620 
	C243.402496,279.923248 241.053848,280.495453 242.724411,285.499359 
	C243.061111,286.507965 241.819321,288.649475 240.721024,289.341858 
	C239.822311,289.908417 237.474396,289.573212 236.814880,288.774353 
	C235.958527,287.737000 235.844162,285.819794 235.967010,284.327148 
	C236.062958,283.161499 237.007507,282.065674 238.047409,280.000763 
	C235.342346,280.000763 233.423904,280.075165 231.513214,279.985168 
	C227.634598,279.802460 225.362854,280.600983 226.642883,285.413574 
	C226.941864,286.537750 224.880463,288.912109 223.374039,289.715210 
	C221.931747,290.484070 219.790817,290.086945 217.971268,289.973083 
	C214.334503,289.745514 211.835251,290.413818 211.778442,294.955963 
	C211.762360,296.242981 209.778717,298.443970 208.582199,298.525055 
	C207.272064,298.613831 205.723129,296.843353 204.494049,295.659180 
	C203.988190,295.171814 204.305222,293.819336 203.796310,293.348236 
	C202.455322,292.106934 200.875565,290.332092 199.374054,290.315704 
	C198.250488,290.303467 196.905045,292.578613 196.027237,294.054626 
	C195.377167,295.147675 195.320114,296.593475 194.340500,298.064209 
	C193.893890,298.000061 193.447281,297.935944 192.872437,297.344391 
	C192.248062,297.569580 191.623688,297.794800 190.590942,298.739960 
	C190.410934,308.826538 190.230927,318.913086 189.329498,329.216125 
	C187.426468,331.714996 186.827408,334.070099 190.388107,336.441528 
	C190.924881,336.917480 191.461670,337.393402 192.111145,338.649231 
	C192.633347,340.647614 193.155548,342.645996 193.800766,345.115173 
	C197.547852,342.935120 202.971786,343.343201 202.301804,336.359253 
	C204.940414,334.901581 207.579010,333.443878 210.836060,332.245209 
	C210.889175,332.462311 210.942276,332.679413 210.329880,333.138733 
	C210.212875,333.765167 210.095856,334.391632 209.978821,335.018036 
	C210.810654,335.049103 211.642487,335.080170 212.829742,335.191498 
	C212.829742,335.191498 212.966263,335.529327 212.636749,336.142395 
	C213.142487,336.728668 213.648209,337.314911 214.094666,337.932281 
	C214.094666,337.932281 214.125351,337.872711 214.248672,338.585907 
	C221.607437,342.440796 228.103821,346.944855 228.180679,356.499969 
	C228.186478,357.221893 228.738159,358.131226 229.316971,358.622498 
	C231.455551,360.437775 233.290497,360.628784 234.902466,357.714661 
	C236.004044,355.723236 237.687454,354.053619 239.110748,352.240143 
	C240.762802,353.994446 242.629227,355.596161 244.013382,357.541107 
	C245.799789,360.051239 249.299652,360.880798 249.938019,358.509979 
	C251.074539,354.288971 253.004333,351.794922 257.531738,351.695160 
	C257.910248,351.686859 258.598938,351.109039 258.599823,350.794281 
	C258.613831,345.683014 258.646820,340.564941 258.333221,335.469482 
	C258.298981,334.912781 256.155121,334.485870 254.982620,333.290131 
	C254.401443,332.189636 253.820282,331.089111 252.909760,329.821564 
	C252.909760,329.821564 252.825272,329.462097 252.898804,328.651367 
	C251.904190,326.362610 250.909576,324.073883 250.176559,321.319000 
	C250.477066,320.880615 250.777573,320.442200 251.684128,319.854736 
	C251.488892,318.901611 251.293655,317.948486 250.905472,316.290955 
	C250.842239,315.563568 250.779007,314.836182 251.497437,314.078918 
	C252.773224,314.642120 254.002289,315.467194 255.336090,315.705109 
	C257.181366,316.034271 259.105469,315.921417 261.498718,316.427887 
	C263.641296,318.618439 265.783875,320.808990 268.000092,323.923706 
	C267.950409,327.949524 267.900726,331.975311 267.154999,336.263885 
	C267.163300,339.028046 267.171600,341.792175 267.179901,344.556366 
	C269.005432,344.157227 270.857727,343.365753 272.647644,343.488007 
	C273.984344,343.579285 276.371918,344.900665 276.341370,345.587646 
	C276.189240,349.012726 275.819458,352.565674 274.652100,355.753479 
	C274.013763,357.496643 271.814362,359.472198 270.018860,359.827850 
	C265.661285,360.690948 261.129547,360.689819 256.664948,360.991455 
	C254.553375,361.134094 252.120255,360.572906 252.029480,363.957916 
	C251.935226,367.472687 254.066666,368.027191 256.906433,368.013702 
	C266.235748,367.969452 275.565399,367.996063 284.894928,367.998505 
	C287.318756,367.999146 289.662537,368.000549 289.967072,364.659912 
	C290.240448,361.660980 288.513794,361.346222 286.108795,360.764038 
	C284.600983,360.398987 282.869995,358.429962 282.481903,356.871185 
	C282.231598,355.865906 283.984711,353.569458 285.274261,353.132080 
	C288.302032,352.105133 290.246216,350.214752 289.277740,347.384186 
	C288.752045,345.847748 285.968903,344.291992 284.113403,344.174377 
	C280.712006,343.958740 280.047607,342.530884 279.849243,339.518860 
	C279.746582,337.960022 278.106689,336.502472 276.941559,334.095154 
	C277.284515,329.391022 276.533661,324.238678 278.233429,320.090546 
	C280.626434,314.250580 284.836395,309.155121 289.012665,303.889343 
	C290.578461,304.592773 292.144287,305.296204 293.897858,306.819336 
	C293.848694,308.213776 293.799530,309.608215 293.078827,311.253906 
	C292.386078,313.721832 291.259033,316.160400 291.089752,318.663696 
	C290.721008,324.117340 290.804962,329.603851 290.779449,335.077240 
	C290.770905,336.910370 290.991577,338.744598 291.107483,340.578308 
	C292.737488,339.723663 294.367462,338.869019 296.811066,337.830292 
	C298.433380,337.830292 300.055695,337.830292 302.549988,337.830292 
	C302.549988,331.113251 302.549988,324.916168 302.549988,318.719086 
	C305.419067,321.386108 307.216370,324.128296 308.659912,327.045502 
	C310.560944,330.887207 313.175537,332.073486 317.436188,329.659271 
	C317.578094,329.353210 317.720001,329.047150 317.886475,328.897339 
M94.166939,203.999908 
	C92.034370,203.148590 88.288994,202.619247 88.043823,201.391144 
	C86.880974,195.566223 82.960876,195.800003 78.688332,195.979294 
	C76.030983,196.090820 73.355629,195.857635 70.705414,196.034607 
	C67.072113,196.277222 64.256233,195.786865 63.039219,191.556107 
	C62.713848,190.425003 60.121857,189.116531 58.826668,189.344589 
	C57.700676,189.542831 56.271946,191.733765 56.139355,193.152710 
	C55.769409,197.111618 55.948219,201.127808 56.013893,205.119675 
	C56.074848,208.824799 54.741951,211.356781 51.139275,212.970932 
	C49.737770,213.598862 48.227119,215.737427 48.146950,217.260559 
	C47.773632,224.353653 47.817017,227.763016 56.858643,227.013000 
	C60.455448,226.714645 63.569378,227.222534 64.224792,231.731171 
	C64.350456,232.595596 65.167267,233.913559 65.857330,234.049896 
	C69.662216,234.801636 70.782112,237.585632 72.148285,240.728973 
	C73.390923,243.588089 78.238579,243.691742 78.446693,241.226685 
	C78.978523,234.926910 83.255363,236.105423 87.111435,235.990295 
	C90.950966,235.875687 94.163017,235.307907 95.356049,230.530426 
	C95.741951,228.985092 98.947548,227.289597 100.959030,227.161087 
	C107.587120,226.737656 114.266090,227.166580 120.909256,226.884705 
	C122.610161,226.812546 124.251076,225.326462 125.919548,224.489944 
	C124.299141,222.997726 122.776604,220.367355 121.040718,220.218063 
	C114.828430,219.683853 108.535408,219.782257 102.288849,220.035034 
	C95.429893,220.312576 93.924210,219.198380 94.046875,212.364105 
	C94.097000,209.571274 94.666687,206.787750 95.829056,204.000092 
	C99.707901,203.470016 102.068916,204.898666 103.295097,208.836136 
	C103.680084,210.072418 105.902786,210.736404 107.284332,211.662338 
	C108.001366,210.035629 109.115578,208.460327 109.334526,206.769135 
	C109.606010,204.672195 109.393196,202.417526 108.896973,200.349167 
	C108.558228,198.937180 107.680130,197.074631 106.521301,196.535690 
	C100.121979,193.559616 95.065811,196.950684 94.166939,203.999908 
M293.845337,200.456985 
	C299.857178,174.856186 285.452942,153.099854 259.110779,149.173187 
	C228.734039,146.328781 205.603500,176.772293 220.560226,207.150192 
	C227.861771,221.980042 239.255081,234.179260 250.909607,245.877884 
	C254.164734,249.145294 257.700531,248.391754 260.430176,245.059052 
	C270.320374,232.983841 280.153717,220.859573 289.806458,208.594757 
	C291.492920,206.451904 292.204315,203.541580 293.845337,200.456985 
M203.511993,280.000000 
	C192.564545,280.000000 181.617081,280.000000 170.669632,280.000000 
	C170.619965,280.674286 170.570282,281.348572 170.520615,282.022827 
	C172.262894,282.351898 174.129150,282.397644 175.712387,283.090271 
	C177.276932,283.774689 178.604523,285.054382 179.946182,286.180054 
	C181.374878,287.378754 182.902039,289.892975 184.020981,289.701294 
	C185.821442,289.392792 188.420502,287.552185 188.734390,285.971985 
	C189.537613,281.928314 191.632538,282.228943 194.846695,282.327057 
	C203.583740,282.593781 212.338348,282.285217 222.143814,282.194946 
	C220.858200,280.679047 220.666458,280.250305 220.466034,280.246216 
	C215.146744,280.137451 209.826569,280.072449 203.511993,280.000000 
M43.685101,204.920273 
	C42.438046,203.285507 41.229080,201.619736 39.932041,200.025635 
	C38.866390,198.715912 37.696114,197.491318 36.572205,196.228989 
	C35.350498,197.346848 33.384907,198.266144 33.025101,199.614075 
	C30.216063,210.137604 32.351063,212.094940 41.681126,212.000183 
	C42.346790,211.993423 43.125950,212.216629 43.656487,211.947220 
	C45.118294,211.204926 46.476028,210.257675 47.874931,209.391510 
	C46.747665,207.928329 45.620399,206.465164 43.685101,204.920273 
M214.840851,345.324127 
	C214.615265,344.318329 214.389679,343.312561 214.164093,342.306763 
	C213.585037,342.499146 213.005981,342.691528 212.426910,342.883881 
	C213.032730,343.780945 213.638550,344.677979 214.840851,345.324127 
M339.489014,281.310364 
	C338.726410,280.972412 337.963806,280.634491 337.201233,280.296539 
	C337.065948,280.841431 336.930664,281.386292 336.795380,281.931183 
	C337.625641,281.910919 338.455872,281.890656 339.489014,281.310364 
M126.240242,302.555542 
	C126.057045,302.816864 125.873848,303.078186 125.690659,303.339508 
	C125.962326,303.172089 126.234001,303.004669 126.240242,302.555542 
z"/>
<path fill="#1D1C35" opacity="1.000000" stroke="none" 
	d="
M376.015228,335.999878 
	C375.460114,336.025635 374.904968,336.051422 373.742981,335.824402 
	C370.346771,327.947144 367.557434,320.322662 364.835571,312.251099 
	C365.587311,308.421936 366.271576,305.039795 366.955811,301.657623 
	C366.535797,301.414703 366.115814,301.171783 365.695801,300.928864 
	C364.178711,302.044342 362.661591,303.159821 361.061798,304.082428 
	C360.979095,303.889557 361.046722,303.475342 361.224701,303.183289 
	C360.958618,302.260132 360.514557,301.629059 359.945862,300.604706 
	C358.470245,296.270599 355.187653,298.423798 352.824310,298.271057 
	C351.712433,298.199249 349.938538,299.688812 349.400360,300.890045 
	C346.732422,306.845184 344.376648,312.940186 341.682617,318.728088 
	C339.741638,317.227478 338.028931,315.984650 336.316254,314.741791 
	C335.841949,315.115570 335.367615,315.489349 334.893311,315.863098 
	C335.100891,319.745605 335.308441,323.628082 335.516022,327.510559 
	C336.366638,327.757446 337.217285,328.004364 338.067902,328.251251 
	C336.359894,323.934906 336.833771,321.390869 341.260590,322.463562 
	C339.857483,326.553925 338.332367,330.223297 337.226898,334.014984 
	C336.890259,335.169708 337.709900,336.661560 338.000000,337.998993 
	C339.475647,340.016937 341.189606,341.908569 342.348358,344.094482 
	C343.211823,345.723328 343.999603,347.891693 343.597870,349.517548 
	C343.326813,350.614655 340.967773,351.778320 339.471924,351.881042 
	C334.998871,352.188202 330.486176,352.115356 325.998260,351.945099 
	C322.455200,351.810638 320.576599,348.734100 322.714233,346.262848 
	C325.250610,343.330719 328.523102,341.035278 332.042664,337.919037 
	C332.778656,326.955627 332.956665,316.537231 333.112732,306.118500 
	C333.151337,303.541809 333.118500,300.964050 333.118500,298.907715 
	C327.406616,296.376862 324.620911,298.241943 322.441040,302.956085 
	C319.883484,308.486786 316.510468,313.640411 313.154999,319.549561 
	C309.922424,313.815125 306.316589,308.668030 304.027527,302.990082 
	C301.931976,297.792114 298.694489,297.593933 294.075134,298.538116 
	C293.949249,301.111328 293.829651,303.555481 293.710083,305.999634 
	C292.144287,305.296204 290.578461,304.592773 288.762024,303.476074 
	C289.166626,301.633301 289.821869,300.203796 290.498901,298.726654 
	C285.084991,297.023773 281.367889,298.314087 278.912109,303.351807 
	C277.279480,306.700867 275.059784,309.763733 272.799530,313.449280 
	C270.194214,309.408752 268.017395,305.944061 265.751099,302.538910 
	C262.350311,297.429047 260.493256,296.901581 253.680695,298.996155 
	C253.470871,298.995544 253.051239,298.999390 252.723785,298.733398 
	C244.140732,298.467407 235.885147,298.467407 227.534210,298.467407 
	C227.534210,311.522369 227.534210,324.228241 227.534210,337.064880 
	C236.351349,337.064880 244.784134,337.064880 253.525497,336.961975 
	C254.219299,335.905640 254.604523,334.952209 254.989777,333.998779 
	C256.155121,334.485870 258.298981,334.912781 258.333221,335.469482 
	C258.646820,340.564941 258.613831,345.683014 258.599823,350.794281 
	C258.598938,351.109039 257.910248,351.686859 257.531738,351.695160 
	C253.004333,351.794922 251.074539,354.288971 249.938019,358.509979 
	C249.299652,360.880798 245.799789,360.051239 244.013382,357.541107 
	C242.629227,355.596161 240.762802,353.994446 239.110748,352.240143 
	C237.687454,354.053619 236.004044,355.723236 234.902466,357.714661 
	C233.290497,360.628784 231.455551,360.437775 229.316971,358.622498 
	C228.738159,358.131226 228.186478,357.221893 228.180679,356.499969 
	C228.103821,346.944855 221.607437,342.440796 214.612488,338.191986 
	C217.238113,337.578522 219.499893,337.358948 221.667603,337.148560 
	C221.667603,323.943085 221.667603,311.206390 221.667603,298.422760 
	C218.867508,298.422760 216.478104,298.422760 213.618942,298.422760 
	C213.618942,305.807983 213.618942,312.872833 213.618942,319.937683 
	C208.268005,313.920929 204.007309,307.483704 199.488800,301.232788 
	C198.444885,299.788635 196.518951,298.982086 194.998871,297.882111 
	C195.320114,296.593475 195.377167,295.147675 196.027237,294.054626 
	C196.905045,292.578613 198.250488,290.303467 199.374054,290.315704 
	C200.875565,290.332092 202.455322,292.106934 203.796310,293.348236 
	C204.305222,293.819336 203.988190,295.171814 204.494049,295.659180 
	C205.723129,296.843353 207.272064,298.613831 208.582199,298.525055 
	C209.778717,298.443970 211.762360,296.242981 211.778442,294.955963 
	C211.835251,290.413818 214.334503,289.745514 217.971268,289.973083 
	C219.790817,290.086945 221.931747,290.484070 223.374039,289.715210 
	C224.880463,288.912109 226.941864,286.537750 226.642883,285.413574 
	C225.362854,280.600983 227.634598,279.802460 231.513214,279.985168 
	C233.423904,280.075165 235.342346,280.000763 238.047409,280.000763 
	C237.007507,282.065674 236.062958,283.161499 235.967010,284.327148 
	C235.844162,285.819794 235.958527,287.737000 236.814880,288.774353 
	C237.474396,289.573212 239.822311,289.908417 240.721024,289.341858 
	C241.819321,288.649475 243.061111,286.507965 242.724411,285.499359 
	C241.053848,280.495453 243.402496,279.923248 247.581177,279.941620 
	C273.886963,280.057190 300.193481,279.996307 326.499756,280.009552 
	C328.076385,280.010345 329.652954,280.147369 331.311676,280.973999 
	C328.511292,283.947266 324.898560,282.790863 321.593903,282.860107 
	C315.156006,282.994995 308.709869,282.875366 302.280853,283.165009 
	C301.201599,283.213623 299.458344,284.702423 299.340790,285.683746 
	C299.204529,286.821533 300.241028,288.566650 301.289093,289.252228 
	C302.409271,289.984955 304.135376,289.961243 305.598999,289.971069 
	C314.256409,290.029114 322.915100,290.066620 331.571686,289.964417 
	C334.427338,289.930756 336.090668,290.715271 337.145111,293.684082 
	C337.653503,295.115387 340.082825,295.864380 341.642334,296.922333 
	C342.427399,295.530304 343.630676,294.219421 343.919464,292.731110 
	C344.801483,288.185852 345.331573,283.572327 346.380676,278.497192 
	C350.987915,277.944611 352.275513,275.275604 351.583130,271.754517 
	C350.867767,268.116547 347.175507,267.244598 341.768372,269.199280 
	C329.522705,269.238892 317.760040,269.228546 305.997345,269.218231 
	C306.030029,264.437775 305.826904,259.635010 306.275482,254.893921 
	C306.376740,253.824265 308.716125,252.202148 310.080597,252.144485 
	C317.152252,251.845749 324.244843,252.086563 331.323883,251.900696 
	C334.785553,251.809784 338.296509,251.470444 341.655701,250.687820 
	C342.933228,250.390167 343.777618,248.456314 344.945007,247.408051 
	C346.470551,246.038177 348.120728,244.807144 349.717285,243.516388 
	C350.670135,245.460205 352.288361,247.355377 352.434753,249.358124 
	C352.722626,253.296265 351.950012,257.304626 352.120453,261.262238 
	C352.188660,262.846252 353.893738,265.781891 354.330811,265.687256 
	C356.475830,265.222778 358.595825,264.159912 360.419434,262.875183 
	C361.513031,262.104767 361.790375,259.888458 362.882019,259.458771 
	C365.651520,258.368652 367.753510,259.224854 367.991333,262.713623 
	C368.224823,266.138062 367.398865,270.734589 369.262665,272.636841 
	C371.104401,274.516541 375.803711,273.361511 379.099945,274.157166 
	C380.587708,274.516266 382.302948,276.150024 382.865875,277.609985 
	C383.736328,279.867645 383.360809,282.595825 384.178986,284.886902 
	C384.738800,286.454529 386.192902,288.265747 387.672272,288.807617 
	C389.790710,289.583588 391.719818,288.912964 392.252960,285.856171 
	C392.445740,284.750885 394.669678,283.518341 396.106750,283.310120 
	C396.850861,283.202301 398.825653,285.474304 398.615631,286.199066 
	C398.209473,287.600616 396.873749,289.249176 395.527405,289.768097 
	C390.892456,291.554413 390.027588,294.515808 393.283813,298.082550 
	C387.582397,298.412781 382.152222,298.412781 375.958527,298.412781 
	C375.958527,306.143158 375.958527,313.571564 375.585266,321.003235 
	C370.314087,322.412476 370.206726,323.108063 374.249451,328.456696 
	C374.856995,326.890594 375.416595,325.448029 376.069672,324.457825 
	C376.113831,328.606720 376.064514,332.303314 376.015228,335.999878 
z"/>
<path fill="#F6F7F6" opacity="1.000000" stroke="none" 
	d="
M293.366028,200.985718 
	C292.204315,203.541580 291.492920,206.451904 289.806458,208.594757 
	C280.153717,220.859573 270.320374,232.983841 260.430176,245.059052 
	C257.700531,248.391754 254.164734,249.145294 250.909607,245.877884 
	C239.255081,234.179260 227.861771,221.980042 220.560226,207.150192 
	C205.603500,176.772293 228.734039,146.328781 259.538940,149.631500 
	C259.727112,151.752426 259.487183,153.415039 259.122070,155.430771 
	C258.310944,157.932022 257.625031,160.080124 256.964050,162.150162 
	C276.932159,171.019424 279.052032,174.605911 277.801697,197.136902 
	C281.434631,198.719528 285.215424,200.366562 289.218414,202.203766 
	C290.749084,201.924530 292.057556,201.455124 293.366028,200.985718 
M248.994675,206.790680 
	C250.473633,207.022842 251.945007,207.370651 253.432800,207.468369 
	C262.909637,208.090775 271.797424,201.594894 273.883240,192.579315 
	C276.082031,183.075378 270.849762,172.583847 262.163177,169.078751 
	C252.949005,165.360794 243.049423,168.662186 237.831818,177.192963 
	C230.937531,188.465103 235.285995,200.709381 248.994675,206.790680 
z"/>
<path fill="#1D1C35" opacity="1.000000" stroke="none" 
	d="
M144.045959,298.999817 
	C145.412277,299.527283 146.778580,300.054718 148.126907,300.575226 
	C151.562180,296.067230 150.210419,291.744629 145.325287,289.821655 
	C143.859192,289.244537 142.153641,286.878296 142.175430,285.354858 
	C142.249619,280.167847 141.641693,276.122375 136.030853,273.603943 
	C134.229553,272.795441 133.358093,268.605499 133.150589,265.879700 
	C132.876740,262.282043 132.870895,259.377319 128.281204,258.651978 
	C127.137634,258.471252 125.513458,255.931839 125.641876,254.627335 
	C125.769218,253.333710 127.681709,251.465500 129.070435,251.198807 
	C132.190430,250.599609 133.582947,249.205124 134.214920,246.100220 
	C134.466721,244.863129 136.656250,244.093277 137.798660,242.946411 
	C139.265259,241.474045 140.810989,239.965256 141.754074,238.172989 
	C141.972198,237.758423 139.571899,235.069855 138.918976,235.262863 
	C137.034195,235.820038 135.307251,237.171432 133.744156,238.480591 
	C132.290482,239.698090 131.127274,241.262375 129.836197,242.673996 
	C128.891312,240.744873 127.566162,238.901199 127.108093,236.862686 
	C126.646721,234.809540 126.158897,231.806015 127.235748,230.542282 
	C130.509445,226.700378 134.367752,223.284210 138.369553,220.180832 
	C139.517517,219.290634 141.925507,220.061020 143.753693,220.004044 
	C146.665070,219.913315 148.032715,221.253433 148.009521,224.196213 
	C147.991241,226.516098 147.635132,229.056000 148.449890,231.089081 
	C149.097153,232.704224 151.156815,234.414795 152.840698,234.726807 
	C154.015869,234.944534 155.722031,232.983017 156.992493,231.784500 
	C158.022491,230.812820 158.595581,228.738068 159.651093,228.522507 
	C163.582443,227.719681 165.765198,225.751465 166.539581,221.741959 
	C166.691483,220.955444 168.945190,220.118835 170.248520,220.087219 
	C177.065201,219.921799 183.890625,219.907318 190.706589,220.085510 
	C192.219513,220.125076 194.085449,220.767471 195.134811,221.798157 
	C198.334961,224.941345 201.439499,224.472824 204.440308,221.926178 
	C207.579071,219.262482 209.384827,220.478729 211.021378,223.538925 
	C212.840012,226.939590 214.797028,230.266235 216.503235,233.915863 
	C215.863525,233.842239 215.414383,233.477859 214.759995,232.870239 
	C214.172394,232.446548 213.790054,232.266113 213.086609,232.030090 
	C210.446823,230.698334 208.149429,229.381424 205.804825,228.154816 
	C201.436996,225.869736 197.491058,225.839264 193.194595,229.034348 
	C182.114105,237.274445 170.702133,245.067505 159.492386,253.136108 
	C157.117996,254.845139 156.083710,257.193634 157.976624,260.264404 
	C158.117737,260.825928 158.172607,261.151520 158.118500,261.912964 
	C158.785141,264.690613 159.482864,267.045563 160.102249,269.627869 
	C160.023911,269.855225 159.960220,270.331848 159.619873,270.165283 
	C156.887741,269.573700 154.279251,268.390045 152.180145,268.989624 
	C150.774200,269.391205 149.057068,272.480865 149.301254,274.091431 
	C149.801102,277.388428 152.725891,278.515900 156.001846,278.302185 
	C155.858597,279.374054 155.715347,280.445953 155.519562,281.910950 
	C159.722702,281.182831 163.482574,280.531525 168.676666,279.631744 
	C167.104736,282.366455 166.040100,283.622314 165.623856,285.065216 
	C164.721664,288.192657 163.978241,291.055359 168.808533,292.272644 
	C170.830414,292.782135 172.187424,295.929871 173.351318,298.257202 
	C160.973434,296.272003 152.413345,300.716156 148.184418,311.157471 
	C146.546295,311.067566 145.354523,311.033447 144.079819,310.545288 
	C144.013245,306.394104 144.029602,302.696960 144.045959,298.999817 
z"/>
<path fill="#1D1C35" opacity="1.000000" stroke="none" 
	d="
M94.583466,203.999954 
	C94.666687,206.787750 94.097000,209.571274 94.046875,212.364105 
	C93.924210,219.198380 95.429893,220.312576 102.288849,220.035034 
	C108.535408,219.782257 114.828430,219.683853 121.040718,220.218063 
	C122.776604,220.367355 124.299141,222.997726 125.919556,224.489960 
	C124.251076,225.326462 122.610161,226.812546 120.909256,226.884705 
	C114.266090,227.166580 107.587120,226.737656 100.959030,227.161087 
	C98.947548,227.289597 95.741951,228.985092 95.356049,230.530426 
	C94.163017,235.307907 90.950966,235.875687 87.111435,235.990295 
	C83.255363,236.105423 78.978523,234.926910 78.446693,241.226685 
	C78.238579,243.691742 73.390923,243.588089 72.148285,240.728973 
	C70.782112,237.585632 69.662216,234.801636 65.857330,234.049896 
	C65.167267,233.913559 64.350456,232.595596 64.224792,231.731171 
	C63.569378,227.222534 60.455448,226.714645 56.858643,227.013000 
	C47.817017,227.763016 47.773632,224.353653 48.146950,217.260559 
	C48.227119,215.737427 49.737770,213.598862 51.139275,212.970932 
	C54.741951,211.356781 56.074848,208.824799 56.013893,205.119675 
	C55.948219,201.127808 55.769409,197.111618 56.139355,193.152710 
	C56.271946,191.733765 57.700676,189.542831 58.826668,189.344589 
	C60.121857,189.116531 62.713848,190.425003 63.039219,191.556107 
	C64.256233,195.786865 67.072113,196.277222 70.705414,196.034607 
	C73.355629,195.857635 76.030983,196.090820 78.688332,195.979294 
	C82.960876,195.800003 86.880974,195.566223 88.043823,201.391144 
	C88.288994,202.619247 92.034370,203.148590 94.583466,203.999954 
z"/>
<path fill="#99E8D2" opacity="1.000000" stroke="none" 
	d="
M293.803955,306.409485 
	C293.829651,303.555481 293.949249,301.111328 294.075134,298.538116 
	C298.694489,297.593933 301.931976,297.792114 304.027527,302.990082 
	C306.316589,308.668030 309.922424,313.815125 313.154999,319.549561 
	C316.510468,313.640411 319.883484,308.486786 322.441040,302.956085 
	C324.620911,298.241943 327.406616,296.376862 333.118500,298.907715 
	C333.118500,300.964050 333.151337,303.541809 333.112732,306.118500 
	C332.956665,316.537231 332.778656,326.955627 332.304138,337.675079 
	C330.606567,337.926147 329.213654,337.876282 327.044891,337.727509 
	C325.808807,336.021790 325.008270,334.426819 324.951630,332.805847 
	C324.777527,327.824158 324.888245,322.832458 324.888245,317.844666 
	C324.475128,317.739807 324.062012,317.634949 323.648895,317.530090 
	C322.047974,320.651123 320.447052,323.772186 318.846130,326.893250 
	C318.846130,326.893250 318.940399,326.934326 318.653015,327.055542 
	C318.153259,327.752411 317.940857,328.328033 317.728455,328.903625 
	C317.728424,328.903625 317.886475,328.897339 317.639160,328.950012 
	C317.277649,329.332123 317.163422,329.661499 317.049225,329.990906 
	C313.175537,332.073486 310.560944,330.887207 308.659912,327.045502 
	C307.216370,324.128296 305.419067,321.386108 302.549988,318.719086 
	C302.549988,324.916168 302.549988,331.113251 302.549988,337.830292 
	C300.055695,337.830292 298.433380,337.830292 296.031860,337.752838 
	C294.827576,336.208740 294.072296,334.750824 294.033112,333.273956 
	C293.836029,325.852905 293.826050,318.426910 293.750366,311.002655 
	C293.799530,309.608215 293.848694,308.213776 293.803955,306.409485 
z"/>
<path fill="#F2F2F2" opacity="1.000000" stroke="none" 
	d="
M143.920959,298.881317 
	C144.029602,302.696960 144.013245,306.394104 143.999557,310.916443 
	C144.059891,312.494904 144.117538,313.248108 144.096054,314.463959 
	C144.016907,322.280487 144.016907,329.634430 144.016907,337.409698 
	C140.856171,336.845764 137.370255,339.721802 135.830673,334.999023 
	C135.886627,331.629517 135.942581,328.260040 136.003540,324.103394 
	C135.898392,322.652405 135.788223,321.988525 135.678040,321.324677 
	C135.982849,321.152283 136.096039,320.895477 136.024384,320.000519 
	C135.960602,318.575897 135.890060,317.704987 135.711517,315.500427 
	C134.685684,317.805237 134.201874,318.892273 133.718063,319.979279 
	C132.231354,322.362335 130.704926,324.721710 129.266205,327.133392 
	C126.235382,332.213837 122.556244,332.255219 119.662346,327.197937 
	C117.733551,323.827271 115.822441,320.446442 113.023582,317.335052 
	C113.023582,323.855988 113.023582,330.376923 113.023582,337.259399 
	C110.213814,337.259399 107.828934,337.259399 105.158844,337.259399 
	C105.158844,324.205383 105.158844,311.476013 105.158844,298.744720 
	C110.264259,296.701355 113.101479,298.784088 115.309937,303.361237 
	C117.896919,308.722961 121.086357,313.793976 124.534477,319.914062 
	C126.040436,317.015778 127.126656,314.925293 128.541321,312.324036 
	C129.344376,310.579407 129.818985,309.345520 130.293594,308.111664 
	C130.607880,308.129761 130.854019,308.008972 131.370850,307.320343 
	C132.628937,304.646576 133.548187,302.401764 134.467438,300.156952 
	C134.778900,300.079468 134.959763,299.882202 135.407104,299.208954 
	C138.487320,298.709534 141.170486,298.566345 143.853638,298.423157 
	C143.853638,298.423157 143.795959,298.762787 143.920959,298.881317 
z"/>
<path fill="#EFEEF0" opacity="1.000000" stroke="none" 
	d="
M194.669693,297.973145 
	C196.518951,298.982086 198.444885,299.788635 199.488800,301.232788 
	C204.007309,307.483704 208.268005,313.920929 213.618942,319.937683 
	C213.618942,312.872833 213.618942,305.807983 213.618942,298.422760 
	C216.478104,298.422760 218.867508,298.422760 221.667603,298.422760 
	C221.667603,311.206390 221.667603,323.943085 221.667603,337.148560 
	C219.499893,337.358948 217.238113,337.578522 214.550842,337.835388 
	C214.125351,337.872711 214.094666,337.932281 214.083466,337.638245 
	C213.703598,336.739227 213.334930,336.134277 212.966263,335.529327 
	C212.966263,335.529327 212.829742,335.191498 212.534897,334.961670 
	C211.825165,334.120056 211.410278,333.508270 210.995392,332.896515 
	C210.942276,332.679413 210.889175,332.462311 210.442871,331.767242 
	C206.683044,326.147156 203.316406,321.005035 199.949753,315.862946 
	C199.479965,316.004913 199.010178,316.146912 198.540390,316.288879 
	C198.540390,323.135712 198.540390,329.982544 198.217148,336.994812 
	C195.928757,337.396606 193.963608,337.632996 191.998459,337.869354 
	C191.461670,337.393402 190.924881,336.917480 190.349289,335.795105 
	C190.223953,333.099030 190.137436,331.049347 190.050919,328.999664 
	C190.230927,318.913086 190.410934,308.826538 191.132248,298.411133 
	C192.115921,298.012115 192.558304,297.941956 193.000671,297.871765 
	C193.447281,297.935944 193.893890,298.000061 194.669693,297.973145 
z"/>
<path fill="#F1F1F1" opacity="1.000000" stroke="none" 
	d="
M156.283844,278.145660 
	C152.725891,278.515900 149.801102,277.388428 149.301254,274.091431 
	C149.057068,272.480865 150.774200,269.391205 152.180145,268.989624 
	C154.279251,268.390045 156.887741,269.573700 159.951248,270.417236 
	C162.952103,270.814423 165.281250,270.774170 167.610382,270.774567 
	C224.178391,270.784088 280.746429,270.812012 337.314301,270.741302 
	C338.960632,270.739258 340.605682,269.703247 342.251312,269.149353 
	C347.175507,267.244598 350.867767,268.116547 351.583130,271.754517 
	C352.275513,275.275604 350.987915,277.944611 346.381409,278.081879 
	C344.598969,277.485870 343.197845,276.817047 341.238800,275.666382 
	C320.720612,275.097137 300.760315,274.931396 280.800079,274.938782 
	C241.200089,274.953461 201.600128,275.063629 162.000153,275.134277 
	C161.831833,275.086029 161.663498,275.037781 160.957748,275.011902 
	C160.206940,275.329956 159.993546,275.625702 159.780151,275.921478 
	C158.708725,276.610718 157.637283,277.299927 156.283844,278.145660 
z"/>
<path fill="#F2F2F2" opacity="1.000000" stroke="none" 
	d="
M148.630768,311.213257 
	C152.413345,300.716156 160.973434,296.272003 173.306335,298.670471 
	C175.111862,299.478363 176.466980,300.252014 178.297470,301.395264 
	C180.125748,303.033264 181.478622,304.301605 182.831497,305.569946 
	C187.879776,314.983276 187.491989,324.029236 181.738892,331.057251 
	C173.351166,341.303741 158.652191,340.055115 150.344543,327.865601 
	C149.781815,326.937439 149.514572,326.559204 149.247330,326.180939 
	C149.105042,325.522369 148.962738,324.863831 148.594818,323.625366 
	C148.176315,320.030212 147.983444,317.015015 147.934967,313.663879 
	C148.263168,312.623077 148.446976,311.918182 148.630768,311.213257 
M175.601089,310.035126 
	C170.779236,305.626740 166.158249,304.757568 161.645905,307.410187 
	C157.414993,309.897400 155.105286,315.201355 156.021423,320.325989 
	C156.852097,324.972473 161.169998,329.053192 165.922546,329.549011 
	C170.286819,330.004333 173.868652,328.320740 176.218369,324.733429 
	C179.237259,320.124512 178.933472,315.310303 175.601089,310.035126 
z"/>
<path fill="#70D7BC" opacity="1.000000" stroke="none" 
	d="
M236.919556,247.267349 
	C240.342499,249.313049 243.886795,251.182968 247.161423,253.443527 
	C252.790939,257.329712 256.905731,257.356537 261.674957,252.567688 
	C277.426483,236.751389 293.063751,220.821182 308.733154,204.923172 
	C310.794800,202.831436 312.788300,200.672546 315.387848,198.357666 
	C317.645538,199.791351 319.328766,201.412094 320.886932,203.233246 
	C320.561584,203.685257 320.315460,203.878464 319.675629,203.960541 
	C313.464447,202.401962 314.489746,206.866364 313.856873,210.323364 
	C305.733826,218.640305 297.824493,226.720139 289.797485,234.681351 
	C280.241821,244.158707 270.585144,253.534225 260.569733,263.026733 
	C248.255600,266.763519 240.771591,258.032928 232.298462,253.025314 
	C233.841965,253.163345 235.045563,253.298721 235.386810,253.337112 
	C235.987289,250.959183 236.453430,249.113266 236.919556,247.267349 
z"/>
<path fill="#6ED3BA" opacity="1.000000" stroke="none" 
	d="
M236.678406,247.025620 
	C236.453430,249.113266 235.987289,250.959183 235.386810,253.337112 
	C235.045563,253.298721 233.841965,253.163345 231.958176,252.959595 
	C223.146774,247.787186 214.961639,242.766281 206.907669,237.543121 
	C203.026016,235.025772 199.639175,234.435516 195.594437,237.512482 
	C186.241287,244.627762 176.587280,251.346146 167.135788,258.334381 
	C164.270248,260.453094 161.419312,261.597076 157.968246,260.015350 
	C156.083710,257.193634 157.117996,254.845139 159.492386,253.136108 
	C170.702133,245.067505 182.114105,237.274445 193.194595,229.034348 
	C197.491058,225.839264 201.436996,225.869736 205.804825,228.154816 
	C208.149429,229.381424 210.446823,230.698334 213.271912,232.301117 
	C214.173935,232.789673 214.569580,232.951584 214.965240,233.113495 
	C215.414383,233.477859 215.863525,233.842239 216.598511,234.284729 
	C223.401962,238.503174 229.919601,242.643539 236.678406,247.025620 
z"/>
<path fill="#97E6D0" opacity="1.000000" stroke="none" 
	d="
M364.768127,312.698151 
	C367.557434,320.322662 370.346771,327.947144 373.327515,335.858093 
	C369.093170,339.322754 365.463013,338.457855 363.865173,333.585083 
	C363.003723,330.957947 361.712402,329.733856 358.859192,330.041626 
	C356.720947,330.272247 354.509827,330.299591 352.380005,330.030701 
	C348.704346,329.566589 346.301819,330.580811 345.539490,334.518677 
	C344.775543,338.464600 341.588867,337.811340 338.402649,337.912445 
	C337.709900,336.661560 336.890259,335.169708 337.226898,334.014984 
	C338.332367,330.223297 339.857483,326.553925 341.489685,322.216217 
	C341.808990,320.725220 341.859955,319.855560 341.910950,318.985901 
	C344.376648,312.940186 346.732422,306.845184 349.400360,300.890045 
	C349.938538,299.688812 351.712433,298.199249 352.824310,298.271057 
	C355.187653,298.423798 358.470245,296.270599 359.897064,300.893860 
	C360.330811,302.209290 360.688782,302.842316 361.046722,303.475342 
	C361.046722,303.475342 360.979095,303.889557 361.097748,304.394653 
	C362.400299,307.499237 363.584229,310.098694 364.768127,312.698151 
M354.662506,311.595001 
	C353.138153,315.190338 351.613800,318.785706 350.000824,322.590027 
	C353.442383,322.590027 356.288574,322.590027 359.783234,322.590027 
	C358.169983,318.609436 356.762146,315.135681 354.662506,311.595001 
z"/>
<path fill="#F1F1F1" opacity="1.000000" stroke="none" 
	d="
M253.216919,337.064880 
	C244.784134,337.064880 236.351349,337.064880 227.534210,337.064880 
	C227.534210,324.228241 227.534210,311.522369 227.534210,298.467407 
	C235.885147,298.467407 244.140732,298.467407 252.701233,299.133728 
	C253.330658,300.039429 253.655182,300.278809 254.086380,300.657745 
	C254.455627,301.029358 254.718201,301.261444 254.549927,301.158081 
	C253.427979,302.504181 252.736877,304.185699 251.854446,306.332764 
	C246.442474,306.332764 240.924149,306.332764 235.604340,306.332764 
	C235.604340,309.061371 235.604340,311.281799 235.604340,314.108795 
	C240.879974,314.108795 245.797867,314.108795 250.715759,314.108795 
	C250.779007,314.836182 250.842239,315.563568 250.896881,317.011292 
	C250.951553,318.489044 251.014801,319.246399 251.078064,320.003784 
	C250.777573,320.442200 250.477066,320.880615 249.585373,321.511200 
	C244.588303,321.703400 240.182404,321.703400 235.665436,321.703400 
	C235.665436,324.370422 235.665436,326.710907 235.665436,329.462097 
	C241.646774,329.462097 247.236023,329.462097 252.825272,329.462097 
	C252.825272,329.462097 252.909760,329.821564 253.076935,330.347656 
	C253.235062,332.937469 253.225983,335.001160 253.216919,337.064880 
z"/>
<path fill="#96E7D1" opacity="1.000000" stroke="none" 
	d="
M376.219452,336.307373 
	C376.064514,332.303314 376.113831,328.606720 376.160309,324.087158 
	C376.091156,322.509430 376.024841,321.754700 375.958527,320.999969 
	C375.958527,313.571564 375.958527,306.143158 375.958527,298.412781 
	C382.152222,298.412781 387.582397,298.412781 393.475677,298.379089 
	C393.938782,298.345428 394.164093,298.371094 394.430542,298.527344 
	C395.122009,298.735291 395.547028,298.787018 395.972046,298.838715 
	C403.258270,302.658813 405.576385,306.948853 404.173584,314.017029 
	C402.760803,321.135437 398.443604,323.675568 384.319885,325.376678 
	C384.319885,327.206146 384.319885,329.130310 384.319885,331.054474 
	C384.319885,333.020996 384.319885,334.987518 384.319885,338.040192 
	C381.286591,337.492645 378.855133,337.053741 376.219452,336.307373 
M384.503815,307.074768 
	C384.503815,310.294312 384.503815,313.513855 384.503815,317.012207 
	C387.112000,317.012207 389.081696,317.117371 391.035980,316.988770 
	C394.380096,316.768677 396.653687,314.677734 396.006866,311.576019 
	C395.589111,309.572845 393.312164,307.425537 391.324585,306.443878 
	C389.625946,305.604919 387.152618,306.334473 384.503815,307.074768 
z"/>
<path fill="#EFEEF0" opacity="1.000000" stroke="none" 
	d="
M254.980774,301.493500 
	C254.718201,301.261444 254.455627,301.029358 254.155624,300.272003 
	C254.042313,299.496735 253.966415,299.246735 253.890533,298.996765 
	C260.493256,296.901581 262.350311,297.429047 265.751099,302.538910 
	C268.017395,305.944061 270.194214,309.408752 272.799530,313.449280 
	C275.059784,309.763733 277.279480,306.700867 278.912109,303.351807 
	C281.367889,298.314087 285.084991,297.023773 290.498901,298.726654 
	C289.821869,300.203796 289.166626,301.633301 288.390442,303.402039 
	C284.836395,309.155121 280.626434,314.250580 278.233429,320.090546 
	C276.533661,324.238678 277.284515,329.391022 276.937317,334.912720 
	C274.001617,339.035767 270.955597,338.499542 267.851013,336.001129 
	C267.900726,331.975311 267.950409,327.949524 268.131287,323.114716 
	C265.882019,318.366425 263.501495,314.427124 261.019012,310.273041 
	C260.603882,309.704773 260.290741,309.351257 259.999573,308.705231 
	C259.704773,308.194855 259.388031,307.977020 259.088135,307.406464 
	C257.730255,305.200317 256.355530,303.346924 254.980774,301.493500 
z"/>
<path fill="#1D1C35" opacity="1.000000" stroke="none" 
	d="
M267.503021,336.132507 
	C270.955597,338.499542 274.001617,339.035767 277.047180,335.364716 
	C278.106689,336.502472 279.746582,337.960022 279.849243,339.518860 
	C280.047607,342.530884 280.712006,343.958740 284.113403,344.174377 
	C285.968903,344.291992 288.752045,345.847748 289.277740,347.384186 
	C290.246216,350.214752 288.302032,352.105133 285.274261,353.132080 
	C283.984711,353.569458 282.231598,355.865906 282.481903,356.871185 
	C282.869995,358.429962 284.600983,360.398987 286.108795,360.764038 
	C288.513794,361.346222 290.240448,361.660980 289.967072,364.659912 
	C289.662537,368.000549 287.318756,367.999146 284.894928,367.998505 
	C275.565399,367.996063 266.235748,367.969452 256.906433,368.013702 
	C254.066666,368.027191 251.935226,367.472687 252.029480,363.957916 
	C252.120255,360.572906 254.553375,361.134094 256.664948,360.991455 
	C261.129547,360.689819 265.661285,360.690948 270.018860,359.827850 
	C271.814362,359.472198 274.013763,357.496643 274.652100,355.753479 
	C275.819458,352.565674 276.189240,349.012726 276.341370,345.587646 
	C276.371918,344.900665 273.984344,343.579285 272.647644,343.488007 
	C270.857727,343.365753 269.005432,344.157227 267.179901,344.556335 
	C267.171600,341.792175 267.163300,339.028046 267.503021,336.132507 
z"/>
<path fill="#1D1C35" opacity="1.000000" stroke="none" 
	d="
M162.086624,275.506897 
	C201.600128,275.063629 241.200089,274.953461 280.800079,274.938782 
	C300.760315,274.931396 320.720612,275.097137 340.906982,275.566406 
	C337.283661,276.632141 333.435669,277.902252 329.584564,277.911621 
	C275.973236,278.042084 222.361465,278.025055 168.750107,277.910339 
	C166.556320,277.905640 164.365372,276.586365 162.086624,275.506897 
z"/>
<path fill="#92E4D1" opacity="1.000000" stroke="none" 
	d="
M157.976624,260.264404 
	C161.419312,261.597076 164.270248,260.453094 167.135788,258.334381 
	C176.587280,251.346146 186.241287,244.627762 195.594437,237.512482 
	C199.639175,234.435516 203.026016,235.025772 206.907669,237.543121 
	C214.961639,242.766281 223.146774,247.787186 231.618286,252.956940 
	C240.771591,258.032928 248.255600,266.763519 260.588623,263.388245 
	C261.419800,264.495483 261.829651,265.314117 262.239471,266.132721 
	C261.523865,266.494019 260.808258,266.855316 259.568298,267.299866 
	C258.696869,267.409943 258.413940,267.558746 257.738037,267.817902 
	C255.749893,267.801270 254.218872,267.796234 252.456818,267.611755 
	C251.674744,267.476227 251.123703,267.520111 250.270752,267.349121 
	C246.421509,265.340302 242.753510,263.748413 239.349045,261.715271 
	C228.375702,255.162048 217.409180,248.587875 206.632629,241.719589 
	C202.629684,239.168350 199.482254,239.456711 195.805923,242.193481 
	C187.015625,248.737183 177.938766,254.897430 169.184540,261.487396 
	C165.269196,264.434753 161.833557,265.075836 158.149582,261.490265 
	C158.172607,261.151520 158.117737,260.825928 157.976624,260.264404 
z"/>
<path fill="#74DABF" opacity="1.000000" stroke="none" 
	d="
M321.011993,203.032837 
	C319.328766,201.412094 317.645538,199.791351 315.639221,198.116379 
	C313.646027,196.584213 311.975922,195.106262 309.983398,193.129181 
	C309.369080,192.437515 309.077087,192.244995 308.785126,192.052475 
	C308.785126,192.052475 308.901489,192.103088 308.984314,191.799576 
	C312.447418,189.966629 315.758789,188.253784 319.224487,186.951813 
	C324.110504,185.116226 329.110840,183.584915 334.995148,181.610489 
	C333.811707,191.189514 332.768707,199.631912 331.706207,208.232285 
	C330.226837,208.232285 328.956146,208.232285 327.685425,208.232285 
	C327.685425,208.232285 327.853516,208.147003 327.741943,207.961838 
	C327.095032,207.514938 326.559692,207.253204 326.024323,206.991470 
	C325.813629,206.930161 325.602905,206.868851 325.152344,206.250824 
	C323.612366,204.807037 322.312195,203.919937 321.011993,203.032837 
z"/>
<path fill="#97E9D8" opacity="1.000000" stroke="none" 
	d="
M320.886932,203.233246 
	C322.312195,203.919937 323.612366,204.807037 324.917969,206.019623 
	C324.150879,206.811539 323.378357,207.277954 321.987122,207.922760 
	C320.902649,208.705124 320.436890,209.309067 319.971161,209.913025 
	C316.897614,213.199112 313.824066,216.485199 310.214935,220.027756 
	C309.466309,220.560211 309.253265,220.836182 309.040222,221.112152 
	C295.070831,235.219513 281.120422,249.345825 267.096191,263.398499 
	C265.962524,264.534424 264.322327,265.164825 262.578491,266.081421 
	C261.829651,265.314117 261.419800,264.495483 260.991089,263.315369 
	C270.585144,253.534225 280.241821,244.158707 289.797485,234.681351 
	C297.824493,226.720139 305.733826,218.640305 314.141937,210.160065 
	C316.400238,207.809174 318.211853,205.911209 320.023499,204.013245 
	C320.315460,203.878464 320.561584,203.685257 320.886932,203.233246 
z"/>
<path fill="#47465A" opacity="1.000000" stroke="none" 
	d="
M250.572662,267.564026 
	C251.123703,267.520111 251.674744,267.476227 252.724686,267.921234 
	C254.880783,268.216583 256.537964,268.023041 258.195160,267.829498 
	C258.413940,267.558746 258.696869,267.409943 259.285400,267.424957 
	C261.475281,268.052979 263.418274,269.124908 265.373077,269.146912 
	C278.600922,269.295898 291.831207,269.222839 305.529053,269.219910 
	C317.760040,269.228546 329.522705,269.238892 341.768372,269.199280 
	C340.605682,269.703247 338.960632,270.739258 337.314301,270.741302 
	C280.746429,270.812012 224.178391,270.784088 167.610382,270.774567 
	C165.281250,270.774170 162.952103,270.814423 160.291595,270.583801 
	C159.960220,270.331848 160.023911,269.855225 160.550735,269.570068 
	C188.765320,269.265564 216.453232,269.282837 244.140488,269.155151 
	C246.286942,269.145264 248.428711,268.118286 250.572662,267.564026 
z"/>
<path fill="#93DFCD" opacity="1.000000" stroke="none" 
	d="
M327.850708,208.527802 
	C328.956146,208.232285 330.226837,208.232285 331.706207,208.232285 
	C332.768707,199.631912 333.811707,191.189514 334.995148,181.610489 
	C329.110840,183.584915 324.110504,185.116226 319.224487,186.951813 
	C315.758789,188.253784 312.447418,189.966629 308.952271,191.854324 
	C307.741455,191.099716 306.645538,189.986847 305.549622,188.873962 
	C306.842834,187.990753 308.019348,186.758469 309.448120,186.280838 
	C318.870331,183.131195 328.346863,180.143936 338.811249,176.780563 
	C338.811249,179.241058 338.962280,180.943161 338.785431,182.610474 
	C337.959808,190.394684 337.145599,198.183060 336.097626,205.938919 
	C335.784210,208.258423 334.727112,210.477448 334.010773,212.742508 
	C332.012512,211.436111 330.014221,210.129715 327.850708,208.527802 
z"/>
<path fill="#9CDFD2" opacity="1.000000" stroke="none" 
	d="
M293.605682,200.721359 
	C292.057556,201.455124 290.749084,201.924530 289.363373,201.845856 
	C296.375061,178.052734 283.126923,158.717972 261.933746,151.687378 
	C261.003571,152.861206 260.125427,153.969421 259.247253,155.077637 
	C259.487183,153.415039 259.727112,151.752426 259.993744,149.728638 
	C285.452942,153.099854 299.857178,174.856186 293.605682,200.721359 
z"/>
<path fill="#26243E" opacity="1.000000" stroke="none" 
	d="
M254.549927,301.158081 
	C256.355530,303.346924 257.730255,305.200317 259.196289,307.642761 
	C259.517578,308.487122 259.747589,308.742462 259.977600,308.997772 
	C260.290741,309.351257 260.603882,309.704773 260.994232,310.733063 
	C261.046234,312.937866 261.021027,314.467865 260.995789,315.997864 
	C259.105469,315.921417 257.181366,316.034271 255.336090,315.705109 
	C254.002289,315.467194 252.773224,314.642120 251.106598,314.093872 
	C245.797867,314.108795 240.879974,314.108795 235.604340,314.108795 
	C235.604340,311.281799 235.604340,309.061371 235.604340,306.332764 
	C240.924149,306.332764 246.442474,306.332764 251.854446,306.332764 
	C252.736877,304.185699 253.427979,302.504181 254.549927,301.158081 
z"/>
<path fill="#1D1C35" opacity="1.000000" stroke="none" 
	d="
M204.009262,280.000000 
	C209.826569,280.072449 215.146744,280.137451 220.466034,280.246216 
	C220.666458,280.250305 220.858200,280.679047 222.143814,282.194946 
	C212.338348,282.285217 203.583740,282.593781 194.846695,282.327057 
	C191.632538,282.228943 189.537613,281.928314 188.734390,285.971985 
	C188.420502,287.552185 185.821442,289.392792 184.020981,289.701294 
	C182.902039,289.892975 181.374878,287.378754 179.946182,286.180054 
	C178.604523,285.054382 177.276932,283.774689 175.712387,283.090271 
	C174.129150,282.397644 172.262894,282.351898 170.520615,282.022827 
	C170.570282,281.348572 170.619965,280.674286 170.669632,280.000000 
	C181.617081,280.000000 192.564545,280.000000 204.009262,280.000000 
z"/>
<path fill="#1D1C35" opacity="1.000000" stroke="none" 
	d="
M44.089115,204.961121 
	C45.620399,206.465164 46.747665,207.928329 47.874931,209.391510 
	C46.476028,210.257675 45.118294,211.204926 43.656487,211.947220 
	C43.125950,212.216629 42.346790,211.993423 41.681126,212.000183 
	C32.351063,212.094940 30.216063,210.137604 33.025101,199.614075 
	C33.384907,198.266144 35.350498,197.346848 36.572205,196.228989 
	C37.696114,197.491318 38.866390,198.715912 39.932041,200.025635 
	C41.229080,201.619736 42.438046,203.285507 44.089115,204.961121 
z"/>
<path fill="#1D1C35" opacity="1.000000" stroke="none" 
	d="
M95.414528,204.000046 
	C95.065811,196.950684 100.121979,193.559616 106.521301,196.535690 
	C107.680130,197.074631 108.558228,198.937180 108.896973,200.349167 
	C109.393196,202.417526 109.606010,204.672195 109.334526,206.769135 
	C109.115578,208.460327 108.001366,210.035629 107.284332,211.662338 
	C105.902786,210.736404 103.680084,210.072418 103.295097,208.836136 
	C102.068916,204.898666 99.707901,203.470016 95.414528,204.000046 
z"/>
<path fill="#22203A" opacity="1.000000" stroke="none" 
	d="
M198.540390,336.829346 
	C198.540390,329.982544 198.540390,323.135712 198.540390,316.288879 
	C199.010178,316.146912 199.479965,316.004913 199.949753,315.862946 
	C203.316406,321.005035 206.683044,326.147156 210.133652,331.637726 
	C207.579010,333.443878 204.940414,334.901581 201.717316,336.673401 
	C200.268677,336.934845 199.404541,336.882111 198.540390,336.829346 
z"/>
<path fill="#1D1C35" opacity="1.000000" stroke="none" 
	d="
M147.790558,313.999786 
	C147.983444,317.015015 148.176315,320.030212 148.424652,323.434937 
	C145.460831,326.771484 144.940140,336.407867 147.436325,340.286438 
	C148.179382,341.441010 148.415390,342.921875 148.936493,344.403290 
	C143.828964,342.411346 139.382355,340.853943 135.098236,338.934021 
	C132.852722,337.927673 132.544510,336.336060 135.509766,335.062317 
	C137.370255,339.721802 140.856171,336.845764 144.016907,337.409698 
	C144.016907,329.634430 144.016907,322.280487 144.457687,314.463623 
	C145.862503,314.000336 146.826523,314.000061 147.790558,313.999786 
z"/>
<path fill="#26243E" opacity="1.000000" stroke="none" 
	d="
M252.862030,329.056732 
	C247.236023,329.462097 241.646774,329.462097 235.665436,329.462097 
	C235.665436,326.710907 235.665436,324.370422 235.665436,321.703400 
	C240.182404,321.703400 244.588303,321.703400 249.454575,321.744263 
	C250.909576,324.073883 251.904190,326.362610 252.862030,329.056732 
z"/>
<path fill="#1D1C35" opacity="1.000000" stroke="none" 
	d="
M293.414612,311.128296 
	C293.826050,318.426910 293.836029,325.852905 294.033112,333.273956 
	C294.072296,334.750824 294.827576,336.208740 295.625061,337.844879 
	C294.367462,338.869019 292.737488,339.723663 291.107483,340.578308 
	C290.991577,338.744598 290.770905,336.910370 290.779449,335.077240 
	C290.804962,329.603851 290.721008,324.117340 291.089752,318.663696 
	C291.259033,316.160400 292.386078,313.721832 293.414612,311.128296 
z"/>
<path fill="#1D1C35" opacity="1.000000" stroke="none" 
	d="
M319.245087,326.935211 
	C320.447052,323.772186 322.047974,320.651123 323.648895,317.530090 
	C324.062012,317.634949 324.475128,317.739807 324.888245,317.844666 
	C324.888245,322.832458 324.777527,327.824158 324.951630,332.805847 
	C325.008270,334.426819 325.808807,336.021790 326.634644,337.813232 
	C325.203003,338.068604 323.405792,338.139374 321.608551,338.210144 
	C321.889832,336.724213 322.134308,335.230164 322.460144,333.754059 
	C323.107147,330.822754 324.109314,327.772736 319.245087,326.935211 
z"/>
<path fill="#1D1C35" opacity="1.000000" stroke="none" 
	d="
M143.829803,298.055664 
	C141.170486,298.566345 138.487320,298.709534 135.429688,298.998718 
	C135.113861,296.156006 132.021271,292.135498 136.627670,290.558716 
	C141.158508,289.007751 141.248245,294.115051 143.235916,296.348022 
	C143.541779,296.691620 143.621628,297.236420 143.829803,298.055664 
z"/>
<path fill="#1D1C35" opacity="1.000000" stroke="none" 
	d="
M198.217148,336.994781 
	C199.404541,336.882111 200.268677,336.934845 201.565796,336.993164 
	C202.971786,343.343201 197.547852,342.935120 193.800766,345.115173 
	C193.155548,342.645996 192.633347,340.647614 192.054810,338.259277 
	C193.963608,337.632996 195.928757,337.396606 198.217148,336.994781 
z"/>
<path fill="#1D1C35" opacity="1.000000" stroke="none" 
	d="
M261.247253,316.212891 
	C261.021027,314.467865 261.046234,312.937866 261.096222,310.947845 
	C263.501495,314.427124 265.882019,318.366425 268.094482,322.652649 
	C265.783875,320.808990 263.641296,318.618439 261.247253,316.212891 
z"/>
<path fill="#1D1C35" opacity="1.000000" stroke="none" 
	d="
M182.900208,305.187195 
	C181.478622,304.301605 180.125748,303.033264 178.580353,301.473083 
	C180.610367,300.428467 182.832901,299.675720 185.948959,298.620331 
	C184.852432,300.895813 183.910690,302.850128 182.900208,305.187195 
z"/>
<path fill="#1D1C35" opacity="1.000000" stroke="none" 
	d="
M189.690216,329.107910 
	C190.137436,331.049347 190.223953,333.099030 190.194031,335.574768 
	C186.827408,334.070099 187.426468,331.714996 189.690216,329.107910 
z"/>
<path fill="#1D1C35" opacity="1.000000" stroke="none" 
	d="
M134.041183,300.141663 
	C133.548187,302.401764 132.628937,304.646576 131.414459,307.111206 
	C131.776596,304.869019 128.989105,301.213715 134.041183,300.141663 
z"/>
<path fill="#26243E" opacity="1.000000" stroke="none" 
	d="
M253.525497,336.961975 
	C253.225983,335.001160 253.235062,332.937469 253.241608,330.431183 
	C253.820282,331.089111 254.401443,332.189636 254.986191,333.644470 
	C254.604523,334.952209 254.219299,335.905640 253.525497,336.961975 
z"/>
<path fill="#1D1C35" opacity="1.000000" stroke="none" 
	d="
M214.542603,345.449585 
	C213.638550,344.677979 213.032730,343.780945 212.426910,342.883881 
	C213.005981,342.691528 213.585037,342.499146 214.164093,342.306763 
	C214.389679,343.312561 214.615265,344.318329 214.542603,345.449585 
z"/>
<path fill="#1D1C35" opacity="1.000000" stroke="none" 
	d="
M339.387573,281.590393 
	C338.455872,281.890656 337.625641,281.910919 336.795410,281.931183 
	C336.930664,281.386292 337.065948,280.841431 337.201233,280.296539 
	C337.963806,280.634491 338.726410,280.972412 339.387573,281.590393 
z"/>
<path fill="#1D1C35" opacity="1.000000" stroke="none" 
	d="
M129.932281,308.131470 
	C129.818985,309.345520 129.344376,310.579407 128.562698,311.958557 
	C126.235313,309.968079 127.302979,308.859924 129.932281,308.131470 
z"/>
<path fill="#1D1C35" opacity="1.000000" stroke="none" 
	d="
M210.662628,333.017639 
	C211.410278,333.508270 211.825165,334.120056 212.357178,334.921509 
	C211.642487,335.080170 210.810654,335.049103 209.978821,335.018066 
	C210.095856,334.391632 210.212875,333.765167 210.662628,333.017639 
z"/>
<path fill="#26243E" opacity="1.000000" stroke="none" 
	d="
M251.381104,319.929260 
	C251.014801,319.246399 250.951553,318.489044 250.993347,317.363525 
	C251.293655,317.948486 251.488892,318.901611 251.381104,319.929260 
z"/>
<path fill="#1D1C35" opacity="1.000000" stroke="none" 
	d="
M134.253204,320.018311 
	C134.201874,318.892273 134.685684,317.805237 135.711517,315.500427 
	C135.890060,317.704987 135.960602,318.575897 135.944885,319.790894 
	C135.501877,320.109100 135.145111,320.083221 134.253204,320.018311 
z"/>
<path fill="#1D1C35" opacity="1.000000" stroke="none" 
	d="
M126.372955,302.696411 
	C126.234001,303.004669 125.962326,303.172089 125.690659,303.339508 
	C125.873848,303.078186 126.057045,302.816864 126.372955,302.696411 
z"/>
<path fill="#1D1C35" opacity="1.000000" stroke="none" 
	d="
M192.936554,297.608093 
	C192.558304,297.941956 192.115921,298.012115 191.336426,298.051147 
	C191.623688,297.794800 192.248062,297.569580 192.936554,297.608093 
z"/>
<path fill="#1D1C35" opacity="1.000000" stroke="none" 
	d="
M212.801514,335.835876 
	C213.334930,336.134277 213.703598,336.739227 214.113098,337.622681 
	C213.648209,337.314911 213.142487,336.728668 212.801514,335.835876 
z"/>
<path fill="#93DFCD" opacity="1.000000" stroke="none" 
	d="
M320.228699,209.794708 
	C320.436890,209.309067 320.902649,208.705124 321.668579,208.044617 
	C321.474609,208.550842 320.980408,209.113617 320.228699,209.794708 
z"/>
<path fill="#1D1C35" opacity="1.000000" stroke="none" 
	d="
M135.509735,321.649414 
	C135.788223,321.988525 135.898392,322.652405 135.923279,323.650208 
	C135.672470,323.314148 135.506958,322.644135 135.509735,321.649414 
z"/>
<path fill="#1D1C35" opacity="1.000000" stroke="none" 
	d="
M318.000763,328.740875 
	C317.940857,328.328033 318.153259,327.752411 318.627533,327.010925 
	C318.683960,327.422729 318.478516,328.000427 318.000763,328.740875 
z"/>
<path fill="#93DFCD" opacity="1.000000" stroke="none" 
	d="
M326.174469,207.252899 
	C326.559692,207.253204 327.095032,207.514938 327.774078,208.050446 
	C327.386719,208.054276 326.855652,207.784302 326.174469,207.252899 
z"/>
<path fill="#1D1C35" opacity="1.000000" stroke="none" 
	d="
M160.011673,275.839600 
	C159.993546,275.625702 160.206940,275.329956 160.704742,275.082428 
	C160.791855,275.400757 160.543198,275.609772 160.011673,275.839600 
z"/>
<path fill="#93DFCD" opacity="1.000000" stroke="none" 
	d="
M308.884033,192.316406 
	C309.077087,192.244995 309.369080,192.437515 309.813263,192.843872 
	C309.637970,192.898575 309.310425,192.739456 308.884033,192.316406 
z"/>
<path fill="#1D1C35" opacity="1.000000" stroke="none" 
	d="
M317.242706,329.825073 
	C317.163422,329.661499 317.277649,329.332123 317.626892,328.871887 
	C317.720001,329.047150 317.578094,329.353210 317.242706,329.825073 
z"/>
<path fill="#1D1C35" opacity="1.000000" stroke="none" 
	d="
M395.723816,298.655670 
	C395.547028,298.787018 395.122009,298.735291 394.489166,298.430298 
	C394.679413,298.275543 395.077484,298.374084 395.723816,298.655670 
z"/>
<path fill="#1D1C35" opacity="1.000000" stroke="none" 
	d="
M149.297668,326.527588 
	C149.514572,326.559204 149.781815,326.937439 150.078430,327.670441 
	C149.854538,327.641510 149.601257,327.257874 149.297668,326.527588 
z"/>
<path fill="#93DFCD" opacity="1.000000" stroke="none" 
	d="
M309.300171,221.025940 
	C309.253265,220.836182 309.466309,220.560211 309.917572,220.169052 
	C309.957214,220.349167 309.758636,220.644455 309.300171,221.025940 
z"/>
<path fill="#1D1C37" opacity="1.000000" stroke="none" 
	d="
M341.682617,318.728088 
	C341.859955,319.855560 341.808990,320.725220 341.528931,321.842224 
	C336.833771,321.390869 336.359894,323.934906 338.067902,328.251251 
	C337.217285,328.004364 336.366638,327.757446 335.516022,327.510559 
	C335.308441,323.628082 335.100891,319.745605 334.893311,315.863098 
	C335.367615,315.489349 335.841949,315.115570 336.316254,314.741791 
	C338.028931,315.984650 339.741638,317.227478 341.682617,318.728088 
z"/>
<path fill="#22203A" opacity="1.000000" stroke="none" 
	d="
M364.835602,312.251099 
	C363.584229,310.098694 362.400299,307.499237 361.180450,304.587524 
	C362.661591,303.159821 364.178711,302.044342 365.695801,300.928864 
	C366.115814,301.171783 366.535797,301.414703 366.955811,301.657623 
	C366.271576,305.039795 365.587311,308.421936 364.835602,312.251099 
z"/>
<path fill="#1D1C37" opacity="1.000000" stroke="none" 
	d="
M375.585266,321.003235 
	C376.024841,321.754700 376.091156,322.509430 376.066864,323.634827 
	C375.416595,325.448029 374.856995,326.890594 374.249451,328.456696 
	C370.206726,323.108063 370.314087,322.412476 375.585266,321.003235 
z"/>
<path fill="#22203A" opacity="1.000000" stroke="none" 
	d="
M361.224701,303.183289 
	C360.688782,302.842316 360.330811,302.209290 360.021667,301.287109 
	C360.514557,301.629059 360.958618,302.260132 361.224701,303.183289 
z"/>
<path fill="#26243E" opacity="1.000000" stroke="none" 
	d="
M253.680695,298.996155 
	C253.966415,299.246735 254.042313,299.496735 254.048950,300.132446 
	C253.655182,300.278809 253.330658,300.039429 253.028687,299.399719 
	C253.051239,298.999390 253.470871,298.995544 253.680695,298.996155 
z"/>
<path fill="#22203A" opacity="1.000000" stroke="none" 
	d="
M248.624039,206.664169 
	C235.285995,200.709381 230.937531,188.465103 237.831818,177.192963 
	C243.049423,168.662186 252.949005,165.360794 262.163177,169.078751 
	C270.849762,172.583847 276.082031,183.075378 273.883240,192.579315 
	C271.797424,201.594894 262.909637,208.090775 253.432800,207.468369 
	C251.945007,207.370651 250.473633,207.022842 248.624039,206.664169 
M245.662857,194.149292 
	C250.399643,187.793030 255.136414,181.436768 259.911957,175.028473 
	C254.557663,172.280289 249.373032,173.256577 244.697876,177.613647 
	C240.649765,181.386353 238.913620,187.367035 241.075485,191.674286 
	C241.713348,192.945129 243.670685,193.553711 245.662857,194.149292 
z"/>
<path fill="#74DABF" opacity="1.000000" stroke="none" 
	d="
M259.122070,155.430771 
	C260.125427,153.969421 261.003571,152.861206 261.933746,151.687378 
	C283.126923,158.717972 296.375061,178.052734 289.141174,201.655701 
	C285.215424,200.366562 281.434631,198.719528 277.801697,197.136902 
	C279.052032,174.605911 276.932159,171.019424 256.964050,162.150162 
	C257.625031,160.080124 258.310944,157.932022 259.122070,155.430771 
z"/>
<path fill="#1D1C37" opacity="1.000000" stroke="none" 
	d="
M250.270752,267.349121 
	C248.428711,268.118286 246.286942,269.145264 244.140488,269.155151 
	C216.453232,269.282837 188.765320,269.265564 160.629074,269.342743 
	C159.482864,267.045563 158.785141,264.690613 158.118500,261.912964 
	C161.833557,265.075836 165.269196,264.434753 169.184540,261.487396 
	C177.938766,254.897430 187.015625,248.737183 195.805923,242.193481 
	C199.482254,239.456711 202.629684,239.168350 206.632629,241.719589 
	C217.409180,248.587875 228.375702,255.162048 239.349045,261.715271 
	C242.753510,263.748413 246.421509,265.340302 250.270752,267.349121 
z"/>
<path fill="#1D1C37" opacity="1.000000" stroke="none" 
	d="
M147.934967,313.663879 
	C146.826523,314.000061 145.862503,314.000336 144.536835,314.000977 
	C144.117538,313.248108 144.059891,312.494904 144.082489,311.370483 
	C145.354523,311.033447 146.546295,311.067566 148.184418,311.157471 
	C148.446976,311.918182 148.263168,312.623077 147.934967,313.663879 
z"/>
<path fill="#1D1C37" opacity="1.000000" stroke="none" 
	d="
M214.759979,232.870239 
	C214.569580,232.951584 214.173935,232.789673 213.592987,232.356720 
	C213.790054,232.266113 214.172394,232.446548 214.759979,232.870239 
z"/>
<path fill="#24213B" opacity="1.000000" stroke="none" 
	d="
M175.847183,310.334564 
	C178.933472,315.310303 179.237259,320.124512 176.218369,324.733429 
	C173.868652,328.320740 170.286819,330.004333 165.922546,329.549011 
	C161.169998,329.053192 156.852097,324.972473 156.021423,320.325989 
	C155.105286,315.201355 157.414993,309.897400 161.645905,307.410187 
	C166.158249,304.757568 170.779236,305.626740 175.847183,310.334564 
z"/>
<path fill="#74DABF" opacity="1.000000" stroke="none" 
	d="
M319.675598,203.960541 
	C318.211853,205.911209 316.400238,207.809174 314.303528,209.870438 
	C314.489746,206.866364 313.464447,202.401962 319.675598,203.960541 
z"/>
<path fill="#222F40" opacity="1.000000" stroke="none" 
	d="
M355.008423,311.628479 
	C356.762146,315.135681 358.169983,318.609436 359.783234,322.590027 
	C356.288574,322.590027 353.442383,322.590027 350.000824,322.590027 
	C351.613800,318.785706 353.138153,315.190338 355.008423,311.628479 
z"/>
<path fill="#222F40" opacity="1.000000" stroke="none" 
	d="
M384.762878,306.722504 
	C387.152618,306.334473 389.625946,305.604919 391.324585,306.443878 
	C393.312164,307.425537 395.589111,309.572845 396.006866,311.576019 
	C396.653687,314.677734 394.380096,316.768677 391.035980,316.988770 
	C389.081696,317.117371 387.112000,317.012207 384.503815,317.012207 
	C384.503815,313.513855 384.503815,310.294312 384.762878,306.722504 
z"/>
<path fill="#1D1C35" opacity="1.000000" stroke="none" 
	d="
M259.999573,308.705231 
	C259.747589,308.742462 259.517578,308.487122 259.179443,307.995483 
	C259.388031,307.977020 259.704773,308.194855 259.999573,308.705231 
z"/>
<path fill="#1D1C37" opacity="1.000000" stroke="none" 
	d="
M257.738037,267.817902 
	C256.537964,268.023041 254.880783,268.216583 252.955719,268.100647 
	C254.218872,267.796234 255.749893,267.801270 257.738037,267.817902 
z"/>
<path fill="#807E95" opacity="1.000000" stroke="none" 
	d="
M245.343109,194.307556 
	C243.670685,193.553711 241.713348,192.945129 241.075485,191.674286 
	C238.913620,187.367035 240.649765,181.386353 244.697876,177.613647 
	C249.373032,173.256577 254.557663,172.280289 259.911957,175.028473 
	C255.136414,181.436768 250.399643,187.793030 245.343109,194.307556 
z"/>
</svg>