<svg xmlns="http://www.w3.org/2000/svg" viewBox="0 0 512 512">
  <path d="M256 32C149.9 32 64 117.9 64 224c0 48.7 15.6 94 41.8 131.2 5.3 7.6 11.2 14.8 17.7 21.6l113.6 119.5c9.5 10 26.3 10 35.8 0l113.6-119.5c6.5-6.8 12.4-14 17.7-21.6 26.2-37.2 41.8-82.5 41.8-131.2 0-106.1-85.9-192-192-192z" fill="#2563EB"/>
  
  <path d="M255.9 144c-35.3 0-64 28.7-64 64 0 16 7.1 30.5 18.4 40.8 7.3 6.7 16.6 11.5 26.7 14 5.9 1.5 11.1 4.7 11.1 10.9 0 5.6-4.9 9.3-10.7 9.3-6.2 0-11.8-2.8-15.5-7.5-2.5-3.2-6.5-4.8-10.5-4.2-4.1.6-7.5 3.5-8.8 7.4l-4.7 14.1c-1.8 5.5 1.5 11.4 7.1 12.8 10 2.4 20.4 3.7 31 3.7v10.8c0 6.6 5.4 12 12 12h8c6.6 0 12-5.4 12-12v-10.5c35.3 0 64-28.7 64-64 0-16-7.1-30.5-18.4-40.8-7.3-6.7-16.6-11.5-26.7-14-5.9-1.5-11.1-4.7-11.1-10.9 0-5.6 4.9-9.3 10.7-9.3 6.2 0 11.8 2.8 15.5 7.5 2.5 3.2 6.5 4.8 10.5 4.2 4.1-.6 7.5-3.5 8.8-7.4l4.7-14.1c1.8-5.5-1.5-11.4-7.1-12.8-10-2.4-20.4-3.7-31-3.7V156c0-6.6-5.4-12-12-12h-8c-6.6 0-12 5.4-12 12v10.5z" fill="#ffffff"/>
</svg>